//***************** SONG 5 NOTES HERE **************************
void Song5()  {

  lcd.clear();

  lcd.setCursor(1, 0);
   lcd.print("    A tocar");
  lcd.setCursor(0, 1);
  lcd.print("Darude Sandstorm");

tone(8,  NOTE_B3, 80);
  delay(80);
  noTone(8);
  delay(50);
  tone(8,  NOTE_B3, 80);
  delay(80);
  noTone(8);
  delay(50);
  tone(8,  NOTE_B3, 80);
  delay(80);
  noTone(8);
  delay(50);
  tone(8,  NOTE_B3, 80);
  delay(80);
  noTone(8);
  delay(50);
  tone(8,  NOTE_B3, 200);
  delay(200);
  noTone(8);
  delay(50);

  tone(8,  NOTE_B3, 80);
  delay(80);
  noTone(8);
  delay(50);
  tone(8, NOTE_B3, 80);
  delay(80);
  noTone(8);
  delay(50);
  tone(8,  NOTE_B3, 80);
  delay(80);
  noTone(8);
  delay(50);
  tone(8,  NOTE_B3, 80);
  delay(80);
  noTone(8);
  delay(50);
  tone(8,  NOTE_B3, 80);
  delay(80);
  noTone(8);
  delay(50);
  tone(8,  NOTE_B3, 80);
  delay(80);
  noTone(8);
  delay(50);
  tone(8,  NOTE_B3, 200);
  delay(200);
  noTone(8);
  delay(50);

  tone(8,  NOTE_E4, 80);
  delay(80);
  noTone(8);
  delay(50);
  tone(8, NOTE_E4, 80);
  delay(80);
  noTone(8);
  delay(50);
  tone(8,  NOTE_E4, 80);
  delay(80);
  noTone(8);
  delay(50);
  tone(8,  NOTE_E4, 80);
  delay(80);
  noTone(8);
  delay(50);
  tone(8,  NOTE_E4, 80);
  delay(80);
  noTone(8);
  delay(50);
  tone(8,  NOTE_E4, 80);
  delay(80);
  noTone(8);
  delay(50);
  tone(8,  NOTE_E4, 200);
  delay(200);
  noTone(8);
  delay(50);


  tone(8,  NOTE_D4, 80);
  delay(80);
  noTone(8);
  delay(50);
  tone(8, NOTE_D4, 80);
  delay(80);
  noTone(8);
  delay(50);
  tone(8,  NOTE_D4, 80);
  delay(80);
  noTone(8);
  delay(50);
  tone(8,  NOTE_D4, 80);
  delay(80);
  noTone(8);
  delay(50);
  tone(8,  NOTE_D4, 80);
  delay(80);
  noTone(8);
  delay(50);
  tone(8,  NOTE_D4, 80);
  delay(80);
  noTone(8);
  delay(50);
  tone(8,  NOTE_D4, 200);
  delay(200);
  noTone(8);
  delay(50);

  tone(8, NOTE_A3, 200);
  delay(200);
  noTone(8);
  delay(50);

  tone(8,  NOTE_B3, 80);
  delay(80);
  noTone(8);
  delay(50);
  tone(8,  NOTE_B3, 80);
  delay(80);
  noTone(8);
  delay(50);
  tone(8,  NOTE_B3, 80);
  delay(80);
  noTone(8);
  delay(50);
  tone(8,  NOTE_B3, 80);
  delay(80);
  noTone(8);
  delay(50);
  tone(8,  NOTE_B3, 200);
  delay(200);
  noTone(8);
  delay(50);

  tone(8,  NOTE_B3, 80);
  delay(80);
  noTone(8);
  delay(50);
  tone(8, NOTE_B3, 80);
  delay(80);
  noTone(8);
  delay(50);
  tone(8,  NOTE_B3, 80);
  delay(80);
  noTone(8);
  delay(50);
  tone(8,  NOTE_B3, 80);
  delay(80);
  noTone(8);
  delay(50);
  tone(8,  NOTE_B3, 80);
  delay(80);
  noTone(8);
  delay(50);
  tone(8,  NOTE_B3, 80);
  delay(80);
  noTone(8);
  delay(50);
  tone(8,  NOTE_B3, 200);
  delay(200);
  noTone(8);
  delay(50);

  tone(8, NOTE_E4, 200);
  delay(200);
  noTone(8);
  delay(50);

  tone(8,  NOTE_B3, 80);
  delay(80);
  noTone(8);
  delay(50);
  tone(8,  NOTE_B3, 80);
  delay(80);
  noTone(8);
  delay(50);
  tone(8,  NOTE_B3, 80);
  delay(80);
  noTone(8);
  delay(50);
  tone(8,  NOTE_B3, 80);
  delay(80);
  noTone(8);
  delay(50);
  tone(8,  NOTE_B3, 200);
  delay(200);
  noTone(8);
  delay(50);

  tone(8,  NOTE_B3, 80);
  delay(80);
  noTone(8);
  delay(50);
  tone(8, NOTE_B3, 80);
  delay(80);
  noTone(8);
  delay(50);
  tone(8,  NOTE_B3, 80);
  delay(80);
  noTone(8);
  delay(50);
  tone(8,  NOTE_B3, 80);
  delay(80);
  noTone(8);
  delay(50);
  tone(8,  NOTE_B3, 80);
  delay(80);
  noTone(8);
  delay(50);
  tone(8,  NOTE_B3, 80);
  delay(80);
  noTone(8);
  delay(50);
  tone(8,  NOTE_B3, 200);
  delay(200);
  noTone(8);
  delay(50);

  tone(8, NOTE_E4, 200);
  delay(200);
  noTone(8);
  delay(50);



  Song5title();


} // end Song5 loop
